<svg id="Ñëîé_1" data-name="Ñëîé 1" xmlns="http://www.w3.org/2000/svg" viewBox="0 0 600 400"><defs><style>.cls-1,.cls-9{fill:#d4ecff;}.cls-2{fill:#173d7a;}.cls-3{fill:#396caa;}.cls-4{fill:#274f89;}.cls-5{fill:#fff;}.cls-6{fill:#5793ce;}.cls-7{fill:#ff2c9c;}.cls-8{fill:#983be9;}.cls-9{opacity:0.4;}.cls-10{fill:#b2d3ea;}.cls-11{fill:#c13d1a;}.cls-12{fill:#ef602e;}.cls-13{fill:#ffc2b0;}.cls-14{fill:#ea9c92;}.cls-15{fill:#d3008d;}</style></defs><path class="cls-1" d="M419.1,338,293.84,265.65c-3.55-2-3.1-5.62,1-8l85.29-49.23c4.1-2.36,10.28-2.61,13.83-.57l125.26,72.32c3.54,2.05,3.1,5.62-1,8l-85.3,49.23C428.83,339.76,422.64,340,419.1,338Z" transform="translate(-0.58 -0.23)"/><path class="cls-2" d="M523.84,137.93,396.51,64.48a4.87,4.87,0,0,0-4.35-.59h0L392,64l-.05,0-4.14,2,4.5,2.24a2,2,0,0,0,0,.25l0,104.58c0,5.23,3.24,11.34,7.23,13.65l123.93,71.49.71,5.83,4.52-2.16c1.49-.87,2.44-2.85,2.44-5.67l0-104.58C531.08,146.34,527.84,140.23,523.84,137.93Z" transform="translate(-0.58 -0.23)"/><path class="cls-3" d="M523.84,137.93,396.51,64.48a4.87,4.87,0,0,0-4.35-.59h0L392,64l-.05,0-4.14,2,4.5,2.24a2,2,0,0,0,0,.25l0,68.92,58,45.79,78.68-39.6A14.37,14.37,0,0,0,523.84,137.93Z" transform="translate(-0.58 -0.23)"/><path class="cls-4" d="M526,139.58l-12.48,5.25,9.42,7.25,7.87-3.35A18.29,18.29,0,0,0,526,139.58Z" transform="translate(-0.58 -0.23)"/><path class="cls-1" d="M519.7,263.44,392.37,190c-4-2.31-7.23-8.42-7.24-13.65l0-104.58c0-5.23,3.23-7.61,7.22-5.31l127.33,73.46c4,2.3,7.23,8.41,7.24,13.64l0,104.58C526.93,263.37,523.69,265.74,519.7,263.44Z" transform="translate(-0.58 -0.23)"/><path class="cls-5" d="M515.46,255.66,396.54,187.09c-3.65-2.11-6.62-7.7-6.62-12.49l0-95.7c0-4.79,3-7,6.61-4.85l118.92,68.57c3.65,2.1,6.62,7.7,6.62,12.49l0,95.69C522.08,255.59,519.12,257.77,515.46,255.66Z" transform="translate(-0.58 -0.23)"/><path class="cls-5" d="M515.46,255.66,396.54,187.09c-3.65-2.11-6.62-7.7-6.62-12.49l0-95.7c0-4.79,3-7,6.61-4.85l118.92,68.57c3.65,2.1,6.62,7.7,6.62,12.49l0,95.69C522.08,255.59,519.12,257.77,515.46,255.66Z" transform="translate(-0.58 -0.23)"/><path class="cls-2" d="M521.6,266.69l-17.12-2.26L394,200.61c-3.55-2-9.73-1.79-13.83.57L301.8,246.39,291.45,245v5.87h0a4,4,0,0,0,2.38,3.63L419.1,326.84c3.54,2.05,9.73,1.79,13.82-.57L518.22,277c2.3-1.33,3.45-3,3.38-4.65h0Z" transform="translate(-0.58 -0.23)"/><path class="cls-3" d="M438.55,226.36l-7.85-4.53H344.36L301.8,246.39,291.45,245v5.87h0a4,4,0,0,0,2.38,3.63L419.1,326.84a12.91,12.91,0,0,0,7.13,1.34Z" transform="translate(-0.58 -0.23)"/><path class="cls-6" d="M296,245.63l-4.59-.61v5.87h0a4,4,0,0,0,2.38,3.63l2.2,1.28Z" transform="translate(-0.58 -0.23)"/><path class="cls-4" d="M420.36,327.43a16.05,16.05,0,0,0,11.75-.73V313.6H420.36Z" transform="translate(-0.58 -0.23)"/><path class="cls-1" d="M419.1,321,293.84,248.66c-3.55-2-3.1-5.62,1-8l85.29-49.22c4.1-2.37,10.28-2.62,13.83-.58l125.26,72.32c3.54,2.05,3.1,5.62-1,8l-85.3,49.23C428.83,322.77,422.64,323,419.1,321Z" transform="translate(-0.58 -0.23)"/><path class="cls-5" d="M518.22,269l-85.3,49.23c-4.09,2.36-10.28,2.62-13.82.57L293.84,246.51a4.71,4.71,0,0,1-2.21-2.41c-.55,1.68.16,3.37,2.21,4.56L419.1,321c3.54,2,9.73,1.79,13.82-.58l85.3-49.22c2.75-1.59,3.84-3.73,3.19-5.58A6.67,6.67,0,0,1,518.22,269Z" transform="translate(-0.58 -0.23)"/><path class="cls-2" d="M347.11,224.71l-5.67-3.27c-.45-.26-.39-.72.13-1l6.69-3.87a2,2,0,0,1,1.78-.07l5.67,3.27c.45.27.39.72-.13,1l-6.69,3.86A2,2,0,0,1,347.11,224.71Z" transform="translate(-0.58 -0.23)"/><path class="cls-2" d="M355.86,229.77l-5.66-3.27c-.46-.27-.4-.73.12-1l6.69-3.86a2,2,0,0,1,1.78-.08l5.67,3.28c.45.26.4.72-.13,1l-6.69,3.86A2,2,0,0,1,355.86,229.77Z" transform="translate(-0.58 -0.23)"/><path class="cls-2" d="M364.62,234.82,359,231.55c-.46-.26-.4-.72.13-1l6.69-3.86a2,2,0,0,1,1.77-.07l5.67,3.27c.45.26.4.72-.13,1l-6.69,3.87A2,2,0,0,1,364.62,234.82Z" transform="translate(-0.58 -0.23)"/><path class="cls-2" d="M376.72,230.65l-5.67-3.27c-.45-.27-.39-.73.13-1l5.62-3.24a2,2,0,0,1,1.77-.08l5.67,3.28c.46.26.4.72-.13,1l-5.61,3.24A2,2,0,0,1,376.72,230.65Z" transform="translate(-0.58 -0.23)"/><path class="cls-2" d="M385.47,235.7l-5.66-3.27c-.46-.26-.4-.72.12-1l5.62-3.24a2,2,0,0,1,1.78-.07l5.66,3.27c.46.26.4.72-.12,1l-5.62,3.25A2,2,0,0,1,385.47,235.7Z" transform="translate(-0.58 -0.23)"/><path class="cls-2" d="M394.23,240.75l-5.67-3.27c-.46-.26-.4-.72.13-1l5.61-3.25a2,2,0,0,1,1.78-.07l5.67,3.27c.45.27.39.72-.13,1L396,240.68A2,2,0,0,1,394.23,240.75Z" transform="translate(-0.58 -0.23)"/><path class="cls-2" d="M403,245.81l-5.67-3.28c-.45-.26-.4-.72.13-1l5.62-3.24a2,2,0,0,1,1.77-.08l5.67,3.28c.45.26.4.72-.13,1l-5.61,3.24A2,2,0,0,1,403,245.81Z" transform="translate(-0.58 -0.23)"/><path class="cls-2" d="M411.73,250.86l-5.67-3.27c-.45-.26-.39-.72.13-1l5.62-3.24a2,2,0,0,1,1.77-.07l5.67,3.27c.46.26.4.72-.13,1l-5.61,3.25A2,2,0,0,1,411.73,250.86Z" transform="translate(-0.58 -0.23)"/><path class="cls-2" d="M420.48,255.91l-5.66-3.27c-.46-.26-.4-.72.12-1l5.62-3.25a2,2,0,0,1,1.78-.07l5.66,3.27c.46.27.4.72-.12,1l-5.62,3.24A2,2,0,0,1,420.48,255.91Z" transform="translate(-0.58 -0.23)"/><path class="cls-2" d="M429.24,261l-5.67-3.28c-.46-.26-.4-.72.13-1l5.61-3.24a2,2,0,0,1,1.78-.08l5.67,3.28c.45.26.39.72-.13,1L431,260.89A2,2,0,0,1,429.24,261Z" transform="translate(-0.58 -0.23)"/><path class="cls-2" d="M438,266l-5.67-3.27c-.45-.26-.4-.72.13-1l5.62-3.24a2,2,0,0,1,1.77-.07l5.67,3.27c.45.26.4.72-.13,1L439.77,266A2,2,0,0,1,438,266Z" transform="translate(-0.58 -0.23)"/><path class="cls-2" d="M446.74,271.07l-5.67-3.27c-.45-.26-.39-.72.13-1l5.62-3.25a2,2,0,0,1,1.77-.07l5.67,3.27c.46.27.4.72-.13,1L448.52,271A2,2,0,0,1,446.74,271.07Z" transform="translate(-0.58 -0.23)"/><path class="cls-2" d="M455.49,276.13l-5.66-3.28c-.46-.26-.4-.72.12-1l5.62-3.24a2,2,0,0,1,1.78-.08l5.66,3.28c.46.26.4.72-.12,1l-5.62,3.24A2,2,0,0,1,455.49,276.13Z" transform="translate(-0.58 -0.23)"/><path class="cls-3" d="M389.62,228.25,384,225c-.45-.26-.4-.72.13-1l5.61-3.24a2,2,0,0,1,1.78-.08l5.67,3.27c.45.27.4.73-.13,1l-5.62,3.24A2,2,0,0,1,389.62,228.25Z" transform="translate(-0.58 -0.23)"/><path class="cls-3" d="M380.74,223.13l-5.67-3.28c-.46-.26-.4-.72.13-1l5.61-3.24a2,2,0,0,1,1.78-.08l5.66,3.28c.46.26.4.72-.12,1l-5.62,3.24A2,2,0,0,1,380.74,223.13Z" transform="translate(-0.58 -0.23)"/><path class="cls-2" d="M371.84,218l-12.21-7.05c-.45-.26-.4-.72.13-1l5.61-3.25a2,2,0,0,1,1.78-.07l12.21,7.05c.45.26.39.72-.13,1l-5.62,3.25A2,2,0,0,1,371.84,218Z" transform="translate(-0.58 -0.23)"/><path class="cls-2" d="M378.06,211.74,368.15,206c-.45-.26-.4-.72.13-1l5.61-3.24a2,2,0,0,1,1.78-.08l9.91,5.72c.45.26.39.72-.13,1l-5.62,3.24A2,2,0,0,1,378.06,211.74Z" transform="translate(-0.58 -0.23)"/><path class="cls-3" d="M398.37,233.31,392.7,230c-.45-.27-.39-.73.13-1l5.62-3.24a2,2,0,0,1,1.77-.07l5.67,3.27c.45.26.4.72-.13,1l-5.61,3.24A2,2,0,0,1,398.37,233.31Z" transform="translate(-0.58 -0.23)"/><path class="cls-2" d="M407.12,238.36l-5.66-3.27c-.46-.26-.4-.72.12-1l5.62-3.24a2,2,0,0,1,1.77-.07l5.67,3.27c.46.26.4.72-.13,1l-5.61,3.24A2,2,0,0,1,407.12,238.36Z" transform="translate(-0.58 -0.23)"/><path class="cls-2" d="M415.88,243.41l-5.67-3.27c-.46-.26-.4-.72.13-1l5.61-3.24a2,2,0,0,1,1.78-.08l5.66,3.27c.46.27.4.73-.12,1l-5.62,3.24A2,2,0,0,1,415.88,243.41Z" transform="translate(-0.58 -0.23)"/><path class="cls-2" d="M424.63,248.47,419,245.2c-.45-.27-.4-.73.13-1l5.61-3.24a2,2,0,0,1,1.78-.08l5.67,3.28c.45.26.39.72-.13,1l-5.62,3.24A2,2,0,0,1,424.63,248.47Z" transform="translate(-0.58 -0.23)"/><path class="cls-2" d="M433.38,253.52l-5.67-3.27c-.45-.26-.39-.72.13-1l5.62-3.24a2,2,0,0,1,1.77-.07l5.67,3.27c.45.26.4.72-.13,1l-5.61,3.24A2,2,0,0,1,433.38,253.52Z" transform="translate(-0.58 -0.23)"/><path class="cls-2" d="M442.13,258.57l-5.66-3.27c-.46-.26-.4-.72.12-1l5.62-3.25A2,2,0,0,1,444,251l5.67,3.27c.46.27.4.73-.13,1l-5.61,3.24A2,2,0,0,1,442.13,258.57Z" transform="translate(-0.58 -0.23)"/><path class="cls-2" d="M450.89,263.63l-5.67-3.27c-.46-.27-.4-.73.13-1l5.61-3.24a2,2,0,0,1,1.78-.08l5.66,3.28c.46.26.4.72-.12,1l-5.62,3.24A2,2,0,0,1,450.89,263.63Z" transform="translate(-0.58 -0.23)"/><path class="cls-2" d="M459.64,268.68,454,265.41c-.45-.26-.4-.72.13-1l5.61-3.24a2,2,0,0,1,1.78-.07l5.67,3.27c.45.26.39.72-.13,1l-5.62,3.24A2,2,0,0,1,459.64,268.68Z" transform="translate(-0.58 -0.23)"/><path class="cls-2" d="M468.39,273.73l-5.67-3.27c-.45-.26-.39-.72.13-1l5.62-3.25a2,2,0,0,1,1.77-.07l5.67,3.27c.45.27.4.72-.13,1l-5.61,3.24A2,2,0,0,1,468.39,273.73Z" transform="translate(-0.58 -0.23)"/><path class="cls-2" d="M484,282.72l-12.37-7.14c-.45-.26-.39-.72.13-1l5.62-3.24a2,2,0,0,1,1.77-.07l12.37,7.14c.45.26.4.72-.13,1l-5.61,3.24A2,2,0,0,1,484,282.72Z" transform="translate(-0.58 -0.23)"/><path class="cls-2" d="M501,272.88l-10.44-6c-.45-.26-.39-.72.13-1l5.62-3.24a2,2,0,0,1,1.77-.08l10.44,6c.45.26.4.72-.13,1l-5.61,3.25A2,2,0,0,1,501,272.88Z" transform="translate(-0.58 -0.23)"/><path class="cls-2" d="M413.7,232.32,408,229.05c-.45-.27-.4-.72.13-1l5.61-3.24a2,2,0,0,1,1.78-.07l5.67,3.27c.45.26.4.72-.13,1l-5.62,3.25A2,2,0,0,1,413.7,232.32Z" transform="translate(-0.58 -0.23)"/><path class="cls-2" d="M404.73,227.14l-5.67-3.27c-.45-.26-.4-.72.13-1l5.61-3.24a2,2,0,0,1,1.78-.07l5.67,3.27c.45.26.39.72-.13,1l-5.62,3.25A2,2,0,0,1,404.73,227.14Z" transform="translate(-0.58 -0.23)"/><path class="cls-3" d="M395.76,222l-5.67-3.27c-.45-.26-.4-.72.13-1l5.61-3.24a2,2,0,0,1,1.78-.07l5.67,3.27c.45.26.39.72-.13,1l-5.62,3.24A2,2,0,0,1,395.76,222Z" transform="translate(-0.58 -0.23)"/><path class="cls-2" d="M386.79,216.78l-5.67-3.27c-.45-.26-.4-.72.13-1l5.61-3.25a2,2,0,0,1,1.78-.07l5.67,3.27c.45.26.39.72-.13,1l-5.62,3.24A2,2,0,0,1,386.79,216.78Z" transform="translate(-0.58 -0.23)"/><path class="cls-2" d="M422.45,237.37l-5.67-3.27c-.45-.26-.39-.72.13-1l5.62-3.25a2,2,0,0,1,1.77-.07L430,233c.45.26.4.72-.13,1l-5.61,3.24A2,2,0,0,1,422.45,237.37Z" transform="translate(-0.58 -0.23)"/><path class="cls-2" d="M431.2,242.43l-5.66-3.28c-.46-.26-.4-.72.12-1l5.62-3.24a2,2,0,0,1,1.77-.08l5.67,3.28c.46.26.4.72-.13,1L433,242.35A2,2,0,0,1,431.2,242.43Z" transform="translate(-0.58 -0.23)"/><path class="cls-2" d="M440,247.48l-5.67-3.27c-.46-.27-.4-.72.13-1l5.61-3.24a2,2,0,0,1,1.78-.07l5.66,3.27c.46.26.4.72-.12,1l-5.62,3.25A2,2,0,0,1,440,247.48Z" transform="translate(-0.58 -0.23)"/><path class="cls-2" d="M448.71,252.53,443,249.26c-.45-.26-.4-.72.13-1l5.61-3.25a2,2,0,0,1,1.78-.07l5.67,3.27c.45.26.39.72-.13,1l-5.62,3.24A2,2,0,0,1,448.71,252.53Z" transform="translate(-0.58 -0.23)"/><path class="cls-2" d="M457.46,257.59l-5.67-3.28c-.45-.26-.39-.72.13-1l5.62-3.24a2,2,0,0,1,1.77-.08l5.67,3.27c.45.27.4.73-.13,1l-5.61,3.24A2,2,0,0,1,457.46,257.59Z" transform="translate(-0.58 -0.23)"/><path class="cls-2" d="M466.21,262.64l-5.66-3.27c-.46-.27-.4-.72.12-1l5.62-3.24a2,2,0,0,1,1.77-.07l5.67,3.27c.46.26.4.72-.13,1L468,262.57A2,2,0,0,1,466.21,262.64Z" transform="translate(-0.58 -0.23)"/><path class="cls-2" d="M475,267.69l-5.67-3.27c-.46-.26-.4-.72.13-1l5.61-3.24a2,2,0,0,1,1.78-.07l5.66,3.27c.46.26.4.72-.12,1l-5.62,3.24A2,2,0,0,1,475,267.69Z" transform="translate(-0.58 -0.23)"/><path class="cls-2" d="M483.72,272.75l-5.67-3.28c-.45-.26-.4-.72.13-1l5.61-3.24a2,2,0,0,1,1.78-.08l5.67,3.27c.45.27.39.73-.13,1l-5.62,3.24A2,2,0,0,1,483.72,272.75Z" transform="translate(-0.58 -0.23)"/><path class="cls-2" d="M492.47,277.8l-5.67-3.27c-.45-.27-.39-.73.13-1l5.62-3.24a2,2,0,0,1,1.77-.07l5.67,3.27c.45.26.4.72-.13,1l-5.61,3.24A2,2,0,0,1,492.47,277.8Z" transform="translate(-0.58 -0.23)"/><path class="cls-2" d="M409.09,219.82l-5.67-3.27c-.45-.26-.4-.72.13-1l5.62-3.24a2,2,0,0,1,1.77-.07l5.67,3.27c.45.26.4.72-.13,1l-5.61,3.25A2,2,0,0,1,409.09,219.82Z" transform="translate(-0.58 -0.23)"/><path class="cls-2" d="M400.38,214.79l-5.67-3.27c-.45-.26-.39-.72.13-1l5.62-3.25a2,2,0,0,1,1.77-.07l5.67,3.27c.45.26.4.72-.13,1l-5.61,3.24A2,2,0,0,1,400.38,214.79Z" transform="translate(-0.58 -0.23)"/><path class="cls-2" d="M391.67,209.76,386,206.49c-.45-.26-.39-.72.13-1l5.62-3.24a2,2,0,0,1,1.77-.08l5.67,3.27c.46.27.4.73-.13,1l-5.61,3.24A2,2,0,0,1,391.67,209.76Z" transform="translate(-0.58 -0.23)"/><path class="cls-2" d="M383,204.74l-5.66-3.28c-.46-.26-.4-.72.12-1L383,197.2a2,2,0,0,1,1.77-.08l5.67,3.28c.46.26.4.72-.13,1l-5.61,3.24A2,2,0,0,1,383,204.74Z" transform="translate(-0.58 -0.23)"/><path class="cls-2" d="M391.92,199.57l-5.67-3.28c-.45-.26-.4-.72.13-1l1.85-1.07a2,2,0,0,1,1.78-.08l5.67,3.28c.45.26.4.72-.13,1l-1.86,1.07A2,2,0,0,1,391.92,199.57Z" transform="translate(-0.58 -0.23)"/><path class="cls-2" d="M403.28,206.13l-5.66-3.27c-.46-.27-.4-.73.12-1l1.86-1.07a2,2,0,0,1,1.78-.07L407,204c.46.26.4.72-.12,1l-1.86,1.07A2,2,0,0,1,403.28,206.13Z" transform="translate(-0.58 -0.23)"/><path class="cls-2" d="M412,211.13l-5.67-3.27c-.46-.26-.4-.72.13-1l1.85-1.07a2,2,0,0,1,1.78-.08l5.67,3.27c.45.27.39.73-.13,1l-1.86,1.07A2,2,0,0,1,412,211.13Z" transform="translate(-0.58 -0.23)"/><path class="cls-2" d="M420.63,216.14,415,212.87c-.45-.26-.4-.72.13-1l1.86-1.07a2,2,0,0,1,1.77-.07l5.67,3.27c.45.26.4.72-.13,1l-1.86,1.07A2,2,0,0,1,420.63,216.14Z" transform="translate(-0.58 -0.23)"/><path class="cls-2" d="M429.3,221.15l-5.67-3.27c-.45-.27-.39-.72.13-1l1.86-1.07a2,2,0,0,1,1.77-.07l5.67,3.27c.46.26.4.72-.13,1l-1.85,1.08A2,2,0,0,1,429.3,221.15Z" transform="translate(-0.58 -0.23)"/><path class="cls-2" d="M477.72,249.1l-5.67-3.27c-.45-.26-.4-.72.13-1l1.86-1.08a2,2,0,0,1,1.77-.07l5.67,3.27c.45.27.4.72-.13,1L479.49,249A2,2,0,0,1,477.72,249.1Z" transform="translate(-0.58 -0.23)"/><path class="cls-2" d="M486.39,254.11l-5.67-3.27c-.45-.26-.39-.72.13-1l1.86-1.07a2,2,0,0,1,1.77-.07l5.67,3.27c.46.26.4.72-.13,1L488.17,254A2,2,0,0,1,486.39,254.11Z" transform="translate(-0.58 -0.23)"/><path class="cls-2" d="M495.06,259.12l-5.66-3.27c-.46-.27-.4-.73.12-1l1.86-1.07a2,2,0,0,1,1.78-.08l5.66,3.28c.46.26.4.72-.12,1L496.84,259A2,2,0,0,1,495.06,259.12Z" transform="translate(-0.58 -0.23)"/><path class="cls-2" d="M503.74,264.12l-5.67-3.27c-.46-.26-.4-.72.13-1l1.85-1.07a2,2,0,0,1,1.78-.08L507.5,262c.45.27.39.73-.13,1l-1.86,1.07A2,2,0,0,1,503.74,264.12Z" transform="translate(-0.58 -0.23)"/><path class="cls-2" d="M417.84,224.87l-5.67-3.27c-.45-.26-.39-.72.13-1l5.62-3.25a2,2,0,0,1,1.77-.07l5.67,3.27c.46.27.4.72-.13,1l-5.61,3.24A2,2,0,0,1,417.84,224.87Z" transform="translate(-0.58 -0.23)"/><path class="cls-2" d="M426.59,229.93l-5.66-3.28c-.46-.26-.4-.72.12-1l5.62-3.24a2,2,0,0,1,1.78-.08l5.66,3.28c.46.26.4.72-.12,1l-5.62,3.24A2,2,0,0,1,426.59,229.93Z" transform="translate(-0.58 -0.23)"/><path class="cls-2" d="M435.35,235l-5.67-3.27c-.46-.26-.4-.72.13-1l5.61-3.24a2,2,0,0,1,1.78-.07l5.67,3.27c.45.26.39.72-.13,1l-5.62,3.25A2,2,0,0,1,435.35,235Z" transform="translate(-0.58 -0.23)"/><path class="cls-2" d="M444.1,240l-5.67-3.27c-.45-.26-.4-.72.13-1l5.62-3.25a2,2,0,0,1,1.77-.07l5.67,3.27c.45.27.4.72-.13,1L445.88,240A2,2,0,0,1,444.1,240Z" transform="translate(-0.58 -0.23)"/><path class="cls-2" d="M452.85,245.09l-5.67-3.28c-.45-.26-.39-.72.13-1l5.62-3.24a2,2,0,0,1,1.77-.08l5.67,3.28c.46.26.4.72-.13,1L454.63,245A2,2,0,0,1,452.85,245.09Z" transform="translate(-0.58 -0.23)"/><path class="cls-2" d="M461.6,250.14l-5.66-3.27c-.46-.26-.4-.72.12-1l5.62-3.24a2,2,0,0,1,1.78-.07l5.66,3.27c.46.26.4.72-.12,1l-5.62,3.25A2,2,0,0,1,461.6,250.14Z" transform="translate(-0.58 -0.23)"/><path class="cls-2" d="M470.36,255.19l-5.67-3.27c-.46-.26-.4-.72.13-1l5.61-3.25a2,2,0,0,1,1.78-.07l5.67,3.27c.45.27.39.72-.13,1l-5.62,3.24A2,2,0,0,1,470.36,255.19Z" transform="translate(-0.58 -0.23)"/><path class="cls-2" d="M479.11,260.25,473.44,257c-.45-.26-.4-.72.13-1l5.62-3.24a2,2,0,0,1,1.77-.08l5.67,3.28c.45.26.4.72-.13,1l-5.62,3.24A2,2,0,0,1,479.11,260.25Z" transform="translate(-0.58 -0.23)"/><path class="cls-2" d="M487.86,265.3,482.19,262c-.45-.27-.39-.72.13-1l5.62-3.24a2,2,0,0,1,1.77-.07l5.67,3.27c.46.26.4.72-.13,1l-5.61,3.25A2,2,0,0,1,487.86,265.3Z" transform="translate(-0.58 -0.23)"/><path class="cls-2" d="M367.8,225.5l-16.69-9.64c-.45-.26-.4-.72.13-1l5.61-3.25a2,2,0,0,1,1.78-.07l16.69,9.64c.46.26.4.72-.13,1l-5.61,3.24A2,2,0,0,1,367.8,225.5Z" transform="translate(-0.58 -0.23)"/><path class="cls-2" d="M475.33,287.58l-16.69-9.64c-.46-.26-.4-.72.12-1l5.62-3.25a2,2,0,0,1,1.78-.07l16.69,9.64c.45.26.4.72-.13,1l-5.62,3.24A2,2,0,0,1,475.33,287.58Z" transform="translate(-0.58 -0.23)"/><path class="cls-2" d="M440.33,278.53l-5.67-3.27c-.46-.26-.4-.72.13-1l6.69-3.86a2,2,0,0,1,1.77-.07l5.67,3.27c.45.26.4.72-.13,1l-6.69,3.86A2,2,0,0,1,440.33,278.53Z" transform="translate(-0.58 -0.23)"/><path class="cls-2" d="M376.77,241.83l-9.07-5.23c-.45-.26-.4-.72.13-1l6.69-3.87a2,2,0,0,1,1.77-.07l9.07,5.23c.45.27.4.73-.13,1l-6.69,3.86A2,2,0,0,1,376.77,241.83Z" transform="translate(-0.58 -0.23)"/><path class="cls-2" d="M431.89,273.66l-9.06-5.23c-.46-.26-.4-.72.13-1l6.69-3.86a2,2,0,0,1,1.77-.07l9.07,5.23c.45.26.39.72-.13,1l-6.69,3.86A2,2,0,0,1,431.89,273.66Z" transform="translate(-0.58 -0.23)"/><path class="cls-2" d="M389.39,249.13l-9.06-5.24c-.45-.26-.4-.72.13-1l6.69-3.87a2,2,0,0,1,1.77-.07l9.07,5.23c.45.27.39.73-.13,1l-6.69,3.86A2,2,0,0,1,389.39,249.13Z" transform="translate(-0.58 -0.23)"/><path class="cls-2" d="M389,239l39.41,22.75a.54.54,0,0,1,0,1l-6.82,3.94a2,2,0,0,1-1.77,0l-39.41-22.75Z" transform="translate(-0.58 -0.23)"/><path class="cls-2" d="M464.79,287.69l6.31,3.65c.37.21.33.59-.1.84l-2.74,1.58a1.62,1.62,0,0,1-1.45.06l-6.32-3.65c-.37-.21-.32-.59.11-.84l2.73-1.58A1.67,1.67,0,0,1,464.79,287.69Z" transform="translate(-0.58 -0.23)"/><path class="cls-2" d="M456,282.6l6.32,3.64c.37.22.32.59-.11.84l-2.73,1.58a1.61,1.61,0,0,1-1.46.06l-6.31-3.64c-.38-.22-.33-.59.1-.84l2.74-1.58A1.59,1.59,0,0,1,456,282.6Z" transform="translate(-0.58 -0.23)"/><path class="cls-2" d="M447.21,277.55l6.31,3.64c.38.22.33.59-.1.84l-2.74,1.58a1.59,1.59,0,0,1-1.45.06L442.91,280c-.37-.22-.32-.6.11-.84l2.74-1.58A1.59,1.59,0,0,1,447.21,277.55Z" transform="translate(-0.58 -0.23)"/><path class="cls-2" d="M460.8,279.81l6.31,3.64c.37.22.33.59-.1.84l-2.74,1.58a1.61,1.61,0,0,1-1.46.06l-6.31-3.64c-.37-.22-.33-.59.11-.84l2.73-1.58A1.61,1.61,0,0,1,460.8,279.81Z" transform="translate(-0.58 -0.23)"/><path class="cls-7" d="M.58.23V86.8a29.08,29.08,0,0,0,27.91,4.12l47.85-18A29.09,29.09,0,0,0,93.27,55.94l18-47.85A29,29,0,0,0,113.08.23Z" transform="translate(-0.58 -0.23)"/><path class="cls-1" d="M600.58,301.64l-66.15,41a15.7,15.7,0,0,0-5.11,21.61l22.21,36h49.05Z" transform="translate(-0.58 -0.23)"/><path class="cls-8" d="M84.73,329.79a18.49,18.49,0,0,0-13.19-12.94l-39-10.05a18.49,18.49,0,0,0-17.8,5L.58,326.19v74H77.43l13.49-13.75a18.49,18.49,0,0,0,4.61-17.89Z" transform="translate(-0.58 -0.23)"/><path class="cls-9" d="M447.89,161.36l-41.55-24a4.43,4.43,0,0,1-1.85-3.53V101.15c0-1.37.83-2,1.85-1.4l41.55,24a4.43,4.43,0,0,1,1.85,3.53V160C449.74,161.32,448.91,162,447.89,161.36Z" transform="translate(-0.58 -0.23)"/><path class="cls-10" d="M418.91,139.28l-.3-.17a4.69,4.69,0,0,1-2-3.74V119.79c0-1.45.88-2.11,2-1.49l.3.17a4.71,4.71,0,0,1,2,3.75V137.8C420.87,139.24,420,139.91,418.91,139.28Z" transform="translate(-0.58 -0.23)"/><path class="cls-10" d="M427.26,144.11l-.29-.17a4.72,4.72,0,0,1-2-3.75v-9.12c0-1.44.88-2.11,2-1.48l.29.17a4.67,4.67,0,0,1,2,3.74v9.12C429.23,144.07,428.35,144.73,427.26,144.11Z" transform="translate(-0.58 -0.23)"/><path class="cls-3" d="M435.62,148.93l-.29-.17a4.69,4.69,0,0,1-2-3.74V123.31c0-1.44.88-2.11,2-1.48l.29.17a4.69,4.69,0,0,1,2,3.74v21.71C437.58,148.89,436.7,149.56,435.62,148.93Z" transform="translate(-0.58 -0.23)"/><path class="cls-10" d="M487.51,152.57l-25.82-14.91a4.16,4.16,0,0,1-1.73-3.31h0c0-1.27.78-1.86,1.73-1.31L487.51,148a4.13,4.13,0,0,1,1.73,3.31h0C489.24,152.54,488.47,153.12,487.51,152.57Z" transform="translate(-0.58 -0.23)"/><path class="cls-10" d="M470.9,152.06l-9.21-5.32a4.16,4.16,0,0,1-1.73-3.31h0c0-1.27.78-1.86,1.73-1.31l9.21,5.32a4.14,4.14,0,0,1,1.74,3.31h0C472.64,152,471.86,152.61,470.9,152.06Z" transform="translate(-0.58 -0.23)"/><path class="cls-3" d="M486.36,161l-9.21-5.31a4.16,4.16,0,0,1-1.73-3.32h0c0-1.27.77-1.86,1.73-1.31l9.21,5.32a4.14,4.14,0,0,1,1.73,3.31h0C488.09,161,487.32,161.54,486.36,161Z" transform="translate(-0.58 -0.23)"/><path class="cls-10" d="M505.78,172.23l-13.18-7.64a4.17,4.17,0,0,1-1.73-3.31h0c0-1.28.78-1.87,1.73-1.31l13.18,7.64a4.13,4.13,0,0,1,1.73,3.31h0C507.51,172.2,506.74,172.78,505.78,172.23Z" transform="translate(-0.58 -0.23)"/><path class="cls-10" d="M494,174.45l-32.26-18.63a4.16,4.16,0,0,1-1.73-3.31h0c0-1.28.78-1.86,1.73-1.31L494,169.82a4.16,4.16,0,0,1,1.73,3.31h0C495.68,174.41,494.91,175,494,174.45Z" transform="translate(-0.58 -0.23)"/><path class="cls-3" d="M507.51,191.25,461.69,164.9a4.16,4.16,0,0,1-1.73-3.31h0c0-1.28.78-1.86,1.73-1.31l45.82,26.35a4.13,4.13,0,0,1,1.73,3.31h0C509.24,191.22,508.47,191.8,507.51,191.25Z" transform="translate(-0.58 -0.23)"/><path class="cls-10" d="M511.39,166.31l-16.75-9.63a4.14,4.14,0,0,1-1.74-3.31h0c0-1.27.78-1.86,1.74-1.31l16.75,9.63a4.17,4.17,0,0,1,1.73,3.31h0C513.12,166.28,512.34,166.87,511.39,166.31Z" transform="translate(-0.58 -0.23)"/><polygon class="cls-3" points="411.95 166.78 403.81 162.07 403.81 171.48 411.95 176.19 411.95 166.78"/><polygon class="cls-1" points="424.83 166.44 416.68 161.73 416.68 178.92 424.83 183.62 424.83 166.44"/><polygon class="cls-1" points="437.7 178.78 429.56 174.08 429.56 186.35 437.7 191.06 437.7 178.78"/><polygon class="cls-1" points="450.58 182.67 442.43 177.96 442.43 193.78 450.58 198.49 450.58 182.67"/><polygon class="cls-3" points="463.45 191.06 455.31 186.35 455.31 201.22 463.45 205.92 463.45 191.06"/><polygon class="cls-2" points="476.33 194.75 468.18 190.04 468.18 208.65 476.33 213.36 476.33 194.75"/><polygon class="cls-1" points="489.21 200.19 481.06 195.49 481.06 216.08 489.21 220.79 489.21 200.19"/><polygon class="cls-3" points="502.08 202.61 493.93 197.9 493.93 223.52 502.08 228.22 502.08 202.61"/><rect class="cls-6" x="556.07" y="160.89" width="1.84" height="5.35" transform="translate(576.59 -416.82) rotate(75.63)"/><rect class="cls-6" x="553.42" y="163.47" width="1.84" height="5.35" transform="translate(577.1 -412.32) rotate(75.63)"/><rect class="cls-6" x="550.78" y="166.05" width="1.84" height="5.35" transform="translate(577.61 -407.82) rotate(75.63)"/><rect class="cls-6" x="548.13" y="168.63" width="1.84" height="5.35" transform="translate(578.1 -403.32) rotate(75.62)"/><polygon class="cls-4" points="450.19 271.62 433.76 262.14 417.34 271.62 433.76 281.11 450.19 271.62"/><polygon class="cls-4" points="398.42 273.28 381.99 263.8 365.57 273.28 381.99 282.76 398.42 273.28"/><polygon class="cls-4" points="363.66 253.37 347.23 243.88 330.81 253.37 347.23 262.85 363.66 253.37"/><polygon class="cls-11" points="381.99 273.28 381.99 222.71 398.42 213.22 398.42 263.8 381.99 273.28"/><polygon class="cls-12" points="398.42 213.22 381.99 203.74 365.57 213.22 381.99 222.71 398.42 213.22"/><polygon class="cls-6" points="381.99 222.71 365.57 213.22 365.57 263.8 381.99 273.28 381.99 222.71"/><polygon class="cls-3" points="381.99 273.28 381.99 222.71 398.42 213.22 398.42 263.8 381.99 273.28"/><polygon class="cls-1" points="398.42 213.22 381.99 203.74 365.57 213.22 381.99 222.71 398.42 213.22"/><polygon class="cls-2" points="416.85 293.68 416.85 265.23 433.28 255.75 433.28 284.19 416.85 293.68"/><polygon class="cls-3" points="416.85 265.23 400.43 255.75 400.43 284.19 416.85 293.68 416.85 265.23"/><polygon class="cls-1" points="433.28 255.75 416.85 246.26 400.43 255.75 416.85 265.23 433.28 255.75"/><polygon class="cls-1" points="347.23 253.37 347.23 183.83 363.66 174.35 363.66 243.88 347.23 253.37"/><polygon class="cls-3" points="347.23 183.83 330.81 174.35 330.81 243.88 347.23 253.37 347.23 183.83"/><polygon class="cls-6" points="363.66 174.35 347.23 164.87 330.81 174.35 347.23 183.83 363.66 174.35"/><path class="cls-6" d="M338,213.89s-2.71-1.37-4.37.67-4.05,6.84-4.12,10.09,2.57,3,4.14,2.26,6.16-7.43,6.44-8.73a4.54,4.54,0,0,0-.77-3.42C338.91,214.42,338,213.89,338,213.89Z" transform="translate(-0.58 -0.23)"/><path class="cls-1" d="M338.62,213.24l.13,2.81a1.59,1.59,0,0,1-.79,1.46,3.15,3.15,0,0,1-2.1.32c-2-.33-2.22-.91-2.37-3.72S338.62,213.24,338.62,213.24Z" transform="translate(-0.58 -0.23)"/><path class="cls-6" d="M328.11,208.49s-2.72-1.37-4.38.67-4.05,6.84-4.12,10.09,2.57,3,4.14,2.26,6.17-7.43,6.44-8.74a4.47,4.47,0,0,0-.77-3.41C329,209,328.11,208.49,328.11,208.49Z" transform="translate(-0.58 -0.23)"/><path class="cls-1" d="M328.7,207.83l.12,2.81a1.6,1.6,0,0,1-.79,1.47,3.17,3.17,0,0,1-2.09.32c-2.05-.33-2.23-.91-2.37-3.72S328.7,207.83,328.7,207.83Z" transform="translate(-0.58 -0.23)"/><path class="cls-2" d="M352.9,156.25c-.81-13.06-14.15,1.92-14.15,1.92l-9.13,9-8.22,9a8.08,8.08,0,0,0-2,6.51L322.68,208a2.5,2.5,0,0,0,2.5,2.16,8.31,8.31,0,0,0,1.23-.1,3.1,3.1,0,0,0,2.75-3.29l-.61-23.68,17.27-10.41S353.7,169.31,352.9,156.25Z" transform="translate(-0.58 -0.23)"/><path class="cls-2" d="M362.82,161.23c-.8-13.06-14.14,1.92-14.14,1.92l-9.13,8.95-8.22,9a8.1,8.1,0,0,0-2.05,6.51L332.61,213a2.5,2.5,0,0,0,2.5,2.16,7.34,7.34,0,0,0,1.23-.11,3.09,3.09,0,0,0,2.75-3.28l-.61-23.69,17.27-10.41S363.63,174.29,362.82,161.23Z" transform="translate(-0.58 -0.23)"/><path class="cls-6" d="M354.93,119.31c10.11,4.19,9.91,10.17,9.91,10.17s-2,21.92-1.3,36.55c.28,6.12-32.52,6.59-27.62-9.73,5.76-19.25,3.6-34.84,6.3-37.19S352.31,118.22,354.93,119.31Z" transform="translate(-0.58 -0.23)"/><path class="cls-13" d="M358.18,124.61c-.52,2-3.22,3.13-6,2.41s-4.62-3-4.09-5,3.22-3.14,6-2.42S358.71,122.55,358.18,124.61Z" transform="translate(-0.58 -0.23)"/><path class="cls-5" d="M353.88,127.73a7.36,7.36,0,0,1-1.83-.24c-3-.78-5-3.3-4.44-5.6s3.55-3.56,6.6-2.77a6.71,6.71,0,0,1,3.55,2.17,3.86,3.86,0,0,1,.89,3.44C358.18,126.57,356.2,127.73,353.88,127.73Zm-1.52-7.88c-1.88,0-3.45.87-3.81,2.28-.46,1.79,1.22,3.78,3.75,4.43s4.95-.28,5.42-2.07a3,3,0,0,0-.71-2.59,5.74,5.74,0,0,0-3-1.84A6.53,6.53,0,0,0,352.36,119.85Z" transform="translate(-0.58 -0.23)"/><path class="cls-13" d="M350.88,118.85a26.91,26.91,0,0,1-.09,3.61c-.06,1,3.47,2,4.38,1s.55-1.86.77-5.29S350.88,118.85,350.88,118.85Z" transform="translate(-0.58 -0.23)"/><path class="cls-14" d="M355.94,118.21s-.87,3.18-5.15,4.4l.06-2.89Z" transform="translate(-0.58 -0.23)"/><path class="cls-13" d="M358.65,110.13a7.78,7.78,0,1,1-9.48-5.59A7.78,7.78,0,0,1,358.65,110.13Z" transform="translate(-0.58 -0.23)"/><path class="cls-14" d="M352.9,112.36s-4.28,1.84-7.25,1.86-2.32-2.46-2.32-2.46l8.81-1.28Z" transform="translate(-0.58 -0.23)"/><path class="cls-7" d="M344.76,112.85s3.74-1.59,7-.93a3.44,3.44,0,0,1,2,1.18,1.15,1.15,0,0,0,.6.43c.58.14,1.53-2.27,2.66-2.33s1.88.75,1,2.23-.61,3.14-.19,3.38,5-3.23,1-11.12-14.11-3.64-15.68-2c0,0-1.66,1.44-3,.16C340.05,103.81,338.54,115.13,344.76,112.85Z" transform="translate(-0.58 -0.23)"/><path class="cls-13" d="M359.17,145.49v5.92a2.44,2.44,0,0,1-.79,1.79l-12.17,11.09,1.39,2.11,16.06-11.65a3.23,3.23,0,0,0,1.33-2.3l1.09-10.33Z" transform="translate(-0.58 -0.23)"/><path class="cls-6" d="M364,126.52s3.69,5.55,5.06,20.16c0,0-6.3,2-9.88.88S364,126.52,364,126.52Z" transform="translate(-0.58 -0.23)"/><path class="cls-3" d="M358.49,133.54A102.9,102.9,0,0,0,357,144.9a2.3,2.3,0,0,0,1.52,2.24h0Z" transform="translate(-0.58 -0.23)"/><path class="cls-6" d="M355.34,172l-2.69-.35-17.36-10a2.42,2.42,0,0,0-2.17.09l-12.3,7.1-1.63-.21v1.62h0a.63.63,0,0,0,.38.57l19.67,11.35a2.36,2.36,0,0,0,2.17-.09l13.4-7.73a.87.87,0,0,0,.53-.73h0Z" transform="translate(-0.58 -0.23)"/><path class="cls-3" d="M342.29,165.66l-1.23-.71H327.5l-6.68,3.85-1.63-.21v1.62h0a.63.63,0,0,0,.38.57l19.67,11.35a2,2,0,0,0,1.12.21Z" transform="translate(-0.58 -0.23)"/><path class="cls-6" d="M319.91,168.68l-.72-.09v1.62h0a.63.63,0,0,0,.38.57l.34.2Z" transform="translate(-0.58 -0.23)"/><path class="cls-5" d="M339.44,182.23a2.51,2.51,0,0,0,1.84-.12v-2.75h-1.84Z" transform="translate(-0.58 -0.23)"/><path class="cls-5" d="M339.24,180.52l-19.67-11.36c-.56-.32-.49-.88.15-1.25l13.4-7.74a2.42,2.42,0,0,1,2.17-.09L355,171.44c.56.32.49.88-.15,1.26l-13.4,7.73A2.42,2.42,0,0,1,339.24,180.52Z" transform="translate(-0.58 -0.23)"/><path class="cls-1" d="M338.91,178.8l-16.36-9.45c-.46-.27-.41-.73.13-1l7.18-4a2,2,0,0,1,1.8-.07L348,173.64c.46.27.4.74-.13,1l-7.18,4A2,2,0,0,1,338.91,178.8Z" transform="translate(-0.58 -0.23)"/><path class="cls-13" d="M333.88,159.8l-.2,1.36a9.93,9.93,0,0,0,.08,3.48l.25,1.2a1.69,1.69,0,0,0,1.34,1.32h0a.94.94,0,0,0,1.09-.81l.33-2.9s.74,1,1.1,1-.4-2.91-1.21-4.55S333.88,159.8,333.88,159.8Z" transform="translate(-0.58 -0.23)"/><path class="cls-13" d="M340.55,138.23l-2.11,4.18a8.1,8.1,0,0,0-.87,3.17l-.91,14.29-2.78-.07-1.26-16.05a5.66,5.66,0,0,1,.07-1.48l1.44-8.14Z" transform="translate(-0.58 -0.23)"/><path class="cls-2" d="M338.57,181.61l-1.65-2.16-17.34-10a2.4,2.4,0,0,1-1-1.93l0-14.2-1-1.3.94-.54h0a.63.63,0,0,1,.68,0l19.66,11.38a2.44,2.44,0,0,1,1,1.93v15.46a.9.9,0,0,1-.37.83h0Z" transform="translate(-0.58 -0.23)"/><path class="cls-3" d="M326.58,173.46l-1.23-.71L318.58,161v-7.72l-1-1.3.94-.54h0a.63.63,0,0,1,.68,0l19.66,11.38a2.08,2.08,0,0,1,.74.87Z" transform="translate(-0.58 -0.23)"/><path class="cls-6" d="M318,152.56l-.44-.58.94-.54h0a.63.63,0,0,1,.68,0l.34.2Z" transform="translate(-0.58 -0.23)"/><path class="cls-4" d="M339.05,163a2.54,2.54,0,0,1,.82,1.65L338,165.75l-.92-1.6Z" transform="translate(-0.58 -0.23)"/><path class="cls-6" d="M337.93,163.4,318.27,152c-.55-.32-1,0-1,.76v15.47a2.42,2.42,0,0,0,1,1.92l19.66,11.39c.56.32,1,0,1-.76l0-15.47A2.42,2.42,0,0,0,337.93,163.4Z" transform="translate(-0.58 -0.23)"/><path class="cls-13" d="M347.6,166.4l-.32.66a4.37,4.37,0,0,1-1.64,1.82l-1.95,1.2a1.94,1.94,0,0,1-2,0l-.06,0a1.18,1.18,0,0,1-.17-1.81l2-2.1s-1.15.88-1.47.53,1.11-1.53,2.15-1.57a4.07,4.07,0,0,0,2-.85Z" transform="translate(-0.58 -0.23)"/><path class="cls-6" d="M342.42,119.08s-7.48,8.14-10.5,15.61a15.29,15.29,0,0,0,8.82,6.42C347,142.91,342.42,119.08,342.42,119.08Z" transform="translate(-0.58 -0.23)"/><path class="cls-3" d="M339.34,140.62l1.21-11.71-2.86,11A13.92,13.92,0,0,0,339.34,140.62Z" transform="translate(-0.58 -0.23)"/><path class="cls-5" d="M348,117.44l-2-.55a4.77,4.77,0,0,0,2.36,1.89c1.4.39,1.61-.8,1.61-.8Z" transform="translate(-0.58 -0.23)"/><path class="cls-1" d="M330.39,324.43c-13.52-7.81-35.45-7.81-49,0s-13.52,20.46,0,28.27,35.45,7.8,49,0S343.91,332.24,330.39,324.43Zm-13.23,20.63c-6.22,3.59-16.29,3.59-22.51,0s-6.21-9.41,0-13,16.29-3.59,22.51,0S323.37,341.47,317.16,345.06Z" transform="translate(-0.58 -0.23)"/><path class="cls-2" d="M276.32,319.8l12.35.2a13,13,0,0,1,3.9-3.28c6.79-3.92,17.47-4.23,24.87-.92l7.34-6.9,11.3.18q-.84-.56-1.74-1.08c-15.7-9.07-41.16-9.07-56.87,0a29.7,29.7,0,0,0-7.06,5.51Z" transform="translate(-0.58 -0.23)"/><polygon class="cls-6" points="335.49 290.91 335.49 308.85 324.19 308.67 324.19 290.73 335.49 290.91"/><polygon class="cls-2" points="316.86 297.64 316.86 315.57 324.19 308.67 324.19 290.73 316.86 297.64"/><path class="cls-2" d="M288.67,302.06V320l16.24-13.24,12.53,9V297.87l-11.53-5.6s-15.88,4.86-16.7,5.07S288.67,302.06,288.67,302.06Z" transform="translate(-0.58 -0.23)"/><polygon class="cls-2" points="275.74 301.64 275.74 319.57 288.09 319.76 288.09 301.83 275.74 301.64"/><polygon class="cls-6" points="269.82 295.34 269.82 313.27 275.74 319.57 275.74 301.64 269.82 295.34"/><path class="cls-1" d="M276.32,301.87l12.35.19a13.13,13.13,0,0,1,3.9-3.28c6.79-3.92,17.47-4.22,24.87-.91l7.34-6.9,11.3.17c-.56-.36-1.14-.72-1.74-1.07-15.7-9.07-41.16-9.07-56.87,0a29.42,29.42,0,0,0-7.06,5.5Z" transform="translate(-0.58 -0.23)"/><path class="cls-6" d="M321.16,300.07v16.49L331.85,314s-.63-9.65-.86-9.91S321.16,300.07,321.16,300.07Z" transform="translate(-0.58 -0.23)"/><path class="cls-2" d="M313.07,316.56v17.93l1.15,1.23,7.54-4.34s-1.17-13.69-1.31-14S313.07,316.56,313.07,316.56Z" transform="translate(-0.58 -0.23)"/><path class="cls-3" d="M327.62,311.93,321.16,318c5.38,4.26,4.74,10.26-1.92,14.11a23,23,0,0,1-6.17,2.37l6.68,7.12-5.92,5.57a53.75,53.75,0,0,0,20.51-6.35c13.5-7.79,15.38-19.74,5.67-28.71Z" transform="translate(-0.58 -0.23)"/><polygon class="cls-3" points="313.25 329.01 313.25 346.95 327.9 341.29 345.53 324.47 345.46 305.43 326.81 320.21 313.25 329.01"/><path class="cls-1" d="M327.62,294l-6.46,6.07c5.38,4.26,4.74,10.27-1.92,14.11a22.69,22.69,0,0,1-6.17,2.38l6.68,7.12-5.92,5.56a53.75,53.75,0,0,0,20.51-6.34c13.5-7.79,15.38-19.75,5.67-28.71Z" transform="translate(-0.58 -0.23)"/><path class="cls-3" d="M313.78,341.52l-5.89-6.27c-5.46.33-11.13-.71-15.32-3.13s-6.11-5.91-5.35-9.16l-14-.22L267.8,317c-4.71,8.09-1.5,17.39,9.67,23.83,8.21,4.74,19.08,7,29.83,6.78Z" transform="translate(-0.58 -0.23)"/><polygon class="cls-3" points="306.72 329.45 306.72 347.38 265.12 324.33 265.12 306.39 271.2 308.85 306.72 329.45"/><polygon class="cls-2" points="313.2 323.35 313.2 341.29 306.72 347.38 306.72 329.45 313.2 323.35"/><path class="cls-6" d="M313.78,323.58l-5.89-6.27c-5.46.33-11.13-.71-15.32-3.13s-6.11-5.9-5.35-9.16l-14-.21-5.39-5.75c-4.71,8.1-1.5,17.39,9.67,23.84,8.21,4.74,19.08,7,29.83,6.78Z" transform="translate(-0.58 -0.23)"/><path class="cls-6" d="M269.16,99.35l1.07-1.81a2.62,2.62,0,0,0,1.85.19,3.63,3.63,0,0,0,2-2.06c1.91-4,5.43-4.26,7-3.86l-.5,2,.25-1-.24,1c-.31-.07-3-.59-4.65,2.74a5.52,5.52,0,0,1-3.28,3.16A4.64,4.64,0,0,1,269.16,99.35Z" transform="translate(-0.58 -0.23)"/><path class="cls-1" d="M304.59,149.81a9.65,9.65,0,1,1,9.65-9.65A9.66,9.66,0,0,1,304.59,149.81Zm0-17.2a7.55,7.55,0,1,0,7.55,7.55A7.55,7.55,0,0,0,304.59,132.61Z" transform="translate(-0.58 -0.23)"/><path class="cls-6" d="M248,283.15a6.85,6.85,0,1,1,6.84-6.85A6.85,6.85,0,0,1,248,283.15Zm0-11.58a4.74,4.74,0,1,0,4.74,4.73A4.74,4.74,0,0,0,248,271.57Z" transform="translate(-0.58 -0.23)"/><path class="cls-6" d="M290.46,206.28l-4.65-9.45,9.45-4.65,4.65,9.45Zm-1.83-8.49,2.79,5.67,5.67-2.79L294.3,195Z" transform="translate(-0.58 -0.23)"/><rect class="cls-6" x="519.72" y="103.57" width="4.84" height="4.84" transform="translate(6.22 241.01) rotate(-26.18)"/><rect class="cls-1" x="362.14" y="69.14" width="10" height="2.1" transform="translate(57.32 279.94) rotate(-45)"/><rect class="cls-1" x="366.09" y="65.19" width="2.1" height="10" transform="translate(57.32 279.94) rotate(-45)"/><path class="cls-1" d="M442.44,73.73a5,5,0,1,1-5-5A5,5,0,0,1,442.44,73.73Z" transform="translate(-0.58 -0.23)"/><path class="cls-1" d="M377.65,333.38a2.89,2.89,0,1,1-2.89-2.89A2.89,2.89,0,0,1,377.65,333.38Z" transform="translate(-0.58 -0.23)"/><circle class="cls-1" cx="488.04" cy="332.81" r="5.92"/><path class="cls-15" d="M282,220.41l-21.14-12.2a1.09,1.09,0,0,0-1.09-.09h0l-2.05,1.18,1.44.53v15.39a4.06,4.06,0,0,0,1.7,3.25l20.21,11.67v1.8l2.07-1.19h0a1.53,1.53,0,0,0,.57-1.36V223.66A4.09,4.09,0,0,0,282,220.41Z" transform="translate(-0.58 -0.23)"/><path class="cls-7" d="M279.93,241.87l-21.14-12.2a4.09,4.09,0,0,1-1.7-3.25V210.7c0-1.25.76-1.83,1.7-1.29l21.14,12.21a4.06,4.06,0,0,1,1.7,3.25v15.71C281.63,241.84,280.87,242.41,279.93,241.87Z" transform="translate(-0.58 -0.23)"/><path class="cls-5" d="M265.9,224.25c0,.91-.64,1.28-1.43.82a3.16,3.16,0,0,1-1.42-2.47c0-.91.64-1.28,1.42-.82A3.14,3.14,0,0,1,265.9,224.25Z" transform="translate(-0.58 -0.23)"/><path class="cls-5" d="M270.22,226.74c0,.91-.64,1.28-1.42.83a3.16,3.16,0,0,1-1.43-2.47c0-.91.64-1.28,1.43-.83A3.17,3.17,0,0,1,270.22,226.74Z" transform="translate(-0.58 -0.23)"/><path class="cls-5" d="M274.54,229.24c0,.91-.64,1.28-1.42.82a3.14,3.14,0,0,1-1.43-2.47c0-.91.64-1.28,1.43-.82A3.16,3.16,0,0,1,274.54,229.24Z" transform="translate(-0.58 -0.23)"/><path class="cls-6" d="M484.75,76,463.61,63.8a1.06,1.06,0,0,0-1.09-.08v0l-2,1.19,1.44.52v15.4a4.07,4.07,0,0,0,1.7,3.25l20.2,11.66v1.81l2.08-1.19h0a1.5,1.5,0,0,0,.58-1.35V79.26A4.07,4.07,0,0,0,484.75,76Z" transform="translate(-0.58 -0.23)"/><path class="cls-1" d="M482.66,97.47,461.52,85.26a4.07,4.07,0,0,1-1.7-3.25V66.29c0-1.25.76-1.82,1.7-1.28l21.14,12.2a4.09,4.09,0,0,1,1.7,3.25V96.18C484.36,97.43,483.6,98,482.66,97.47Z" transform="translate(-0.58 -0.23)"/><path class="cls-5" d="M468.63,79.85c0,.91-.64,1.27-1.43.82a3.17,3.17,0,0,1-1.42-2.47c0-.91.64-1.28,1.42-.82A3.14,3.14,0,0,1,468.63,79.85Z" transform="translate(-0.58 -0.23)"/><path class="cls-5" d="M473,82.34c0,.91-.64,1.28-1.43.82a3.16,3.16,0,0,1-1.42-2.47c0-.91.64-1.27,1.42-.82A3.14,3.14,0,0,1,473,82.34Z" transform="translate(-0.58 -0.23)"/><path class="cls-5" d="M477.27,84.83c0,.91-.64,1.28-1.42.83a3.16,3.16,0,0,1-1.43-2.47c0-.91.64-1.28,1.43-.83A3.19,3.19,0,0,1,477.27,84.83Z" transform="translate(-0.58 -0.23)"/><polygon class="cls-1" points="482.3 340.08 494.71 332.92 507.12 340.08 494.71 347.25 482.3 340.08"/><polygon class="cls-1" points="508.64 324.67 521.05 317.5 533.46 324.67 521.05 331.83 508.64 324.67"/><polygon class="cls-1" points="534.91 309.62 547.32 302.46 559.73 309.62 547.32 316.79 534.91 309.62"/><polygon class="cls-11" points="521.05 324.67 521.05 286.45 508.64 279.29 508.64 317.5 521.05 324.67"/><polygon class="cls-15" points="521.05 286.45 533.46 279.29 533.46 317.5 521.05 324.67 521.05 286.45"/><polygon class="cls-7" points="521.05 324.67 521.05 286.45 508.64 279.29 508.64 317.5 521.05 324.67"/><polygon class="cls-7" points="494.71 340.08 494.71 318.59 482.3 311.42 482.3 332.92 494.71 340.08"/><polygon class="cls-15" points="494.71 318.59 507.12 311.42 507.12 332.92 494.71 340.08 494.71 318.59"/><polygon class="cls-7" points="482.3 311.42 494.71 304.26 507.12 311.42 494.71 318.59 482.3 311.42"/><polygon class="cls-7" points="547.32 309.62 547.32 257.08 534.91 249.91 534.91 302.46 547.32 309.62"/><polygon class="cls-15" points="547.32 257.08 559.73 249.91 559.73 302.46 547.32 309.62 547.32 257.08"/><polygon class="cls-7" points="534.91 249.91 547.32 242.75 559.73 249.91 547.32 257.08 534.91 249.91"/><polygon class="cls-7" points="508.64 279.29 521.05 272.13 533.46 279.29 521.05 286.45 508.64 279.29"/></svg>